<svg xmlns="http://www.w3.org/2000/svg" width="60" height="63.001"><g data-name="Vector Smart Object"><g data-name="Vector Smart Object"><g data-name="Сгруппировать 177"><g data-name="Сгруппировать 24"><g data-name="Сгруппировать 3"><g data-name="Сгруппировать 1"><path data-name="Контур 1" d="M28.922 32.171a18.094 18.094 0 01-5.065-.734 14.525 14.525 0 01-5.146-2.69 14.134 14.134 0 01-4.159-5.874 16.492 16.492 0 01-.914-5.131 42.427 42.427 0 01.164-5.6 64.528 64.528 0 01.9-6.411.622.622 0 111.217.253c-.023.111-2.251 11.2-.211 16.43a12.9 12.9 0 003.789 5.363 13.3 13.3 0 004.71 2.458 16.311 16.311 0 005.726.642.626.626 0 01.132 1.245c-.043.006-.458.049-1.143.049z" fill="#fcf8f0"/></g><g data-name="Сгруппировать 2"><path data-name="Контур 2" d="M29.999 32.127a.615.615 0 01-.366-.12.629.629 0 01-.136-.874 16.733 16.733 0 002.322-5.361 13.515 13.515 0 00.229-5.324 12.952 12.952 0 00-2.709-5.963c-3.478-4.4-14.117-8-14.224-8.031a.627.627 0 01-.394-.791.62.62 0 01.785-.4 63.268 63.268 0 015.96 2.42 41.691 41.691 0 014.892 2.656 16.29 16.29 0 013.952 3.363 14.187 14.187 0 012.968 6.567 14.789 14.789 0 01-.261 5.836 17.681 17.681 0 01-2.515 5.763.619.619 0 01-.503.259z" fill="#fcf8f0"/></g></g><g data-name="Сгруппировать 13"><g data-name="Сгруппировать 6"><g data-name="Сгруппировать 5"><g data-name="Сгруппировать 4"><path data-name="Контур 3" d="M24.059 21.433a.3.3 0 01-.261-.152c-.179-.312-1.958-3.014-9.346-1.962a.303.303 0 01-.084-.6c7.618-1.085 9.626 1.692 9.952 2.259a.3.3 0 01-.11.415.3.3 0 01-.151.04z" fill="#fcf8f0"/></g></g></g><g data-name="Сгруппировать 9"><g data-name="Сгруппировать 8"><g data-name="Сгруппировать 7"><path data-name="Контур 4" d="M20.939 15.988a.3.3 0 01-.261-.152c-.1-.171-1.111-1.645-6.388-.636a.305.305 0 01-.112-.6 12.278 12.278 0 015.423-.1 2.54 2.54 0 011.6 1.033.3.3 0 01-.11.415.3.3 0 01-.152.04z" fill="#fcf8f0"/></g></g></g><g data-name="Сгруппировать 12"><g data-name="Сгруппировать 11"><g data-name="Сгруппировать 10"><path data-name="Контур 5" d="M18.181 11.174a.3.3 0 01-.261-.152c0-.007-.443-.711-3.29-.2a.305.305 0 01-.105-.6c2.974-.533 3.73.169 3.917.5a.3.3 0 01-.11.415.3.3 0 01-.151.037z" fill="#fcf8f0"/></g></g></g></g><g data-name="Сгруппировать 23"><g data-name="Сгруппировать 16"><g data-name="Сгруппировать 15"><g data-name="Сгруппировать 14"><path data-name="Контур 6" d="M24.059 21.433a.3.3 0 01-.261-.152c-.325-.568-1.707-3.709 3.034-9.815a.3.3 0 01.423-.052.305.305 0 01.052.426c-4.6 5.922-3.166 8.826-2.987 9.138a.3.3 0 01-.11.415.3.3 0 01-.151.04z" fill="#fcf8f0"/></g></g></g><g data-name="Сгруппировать 19"><g data-name="Сгруппировать 18"><g data-name="Сгруппировать 17"><path data-name="Контур 7" d="M20.939 15.988a.3.3 0 01-.261-.152 2.577 2.577 0 01-.088-1.912 12.487 12.487 0 012.8-4.681.3.3 0 01.425-.032.305.305 0 01.032.428c-3.506 4.1-2.746 5.722-2.648 5.893a.3.3 0 01-.11.415.3.3 0 01-.15.041z" fill="#fcf8f0"/></g></g></g><g data-name="Сгруппировать 22"><g data-name="Сгруппировать 21"><g data-name="Сгруппировать 20"><path data-name="Контур 8" d="M18.181 11.174a.3.3 0 01-.261-.152c-.187-.326-.412-1.337 1.533-3.666a.3.3 0 01.424-.037.305.305 0 01.037.428c-1.861 2.229-1.476 2.965-1.472 2.972a.3.3 0 01-.11.415.3.3 0 01-.151.04z" fill="#fcf8f0"/></g></g></g></g><path data-name="Контур 9" d="M30 31.805a.3.3 0 01-.261-.152L15.05 6.012a.3.3 0 01.11-.415.3.3 0 01.411.111L30.26 31.349a.3.3 0 01-.11.415.3.3 0 01-.15.041z" fill="#fcf8f0"/></g><g data-name="Сгруппировать 48"><g data-name="Сгруппировать 27"><g data-name="Сгруппировать 25"><path data-name="Контур 10" d="M17.176 40.849a15.433 15.433 0 01-2.314-.178c-2.488-.377-5.716-1.962-9.595-4.71a63.655 63.655 0 01-5.059-3.992.629.629 0 01-.051-.884.618.618 0 01.877-.052c.084.076 8.495 7.563 14.013 8.4a12.713 12.713 0 006.479-.617 13.3 13.3 0 004.46-2.861 16.672 16.672 0 003.446-4.707.62.62 0 01.82-.318.628.628 0 01.316.825 17.621 17.621 0 01-3.694 5.076 14.551 14.551 0 01-4.884 3.146 13.434 13.434 0 01-4.814.872z" fill="#fcf8f0"/></g><g data-name="Сгруппировать 26"><path data-name="Контур 11" d="M30 32.127a.621.621 0 01-.568-.372 16.676 16.676 0 00-3.446-4.707 13.3 13.3 0 00-4.46-2.861 12.712 12.712 0 00-6.479-.617c-5.522.837-13.929 8.323-14.013 8.4a.618.618 0 01-.877-.052.629.629 0 01.051-.884 63.647 63.647 0 015.059-3.992c3.878-2.748 7.106-4.333 9.595-4.71a13.925 13.925 0 017.127.693 14.55 14.55 0 014.884 3.146 17.621 17.621 0 013.694 5.076.628.628 0 01-.316.826.615.615 0 01-.251.054z" fill="#fcf8f0"/></g></g><g data-name="Сгруппировать 37"><g data-name="Сгруппировать 30"><g data-name="Сгруппировать 29"><g data-name="Сгруппировать 28"><path data-name="Контур 12" d="M11.479 39.171a.3.3 0 01-.112-.022.3.3 0 01-.167-.4c2.877-7.192 6.267-7.556 6.917-7.556a.303.303 0 010 .607c-.357 0-3.569.2-6.359 7.176a.3.3 0 01-.279.195z" fill="#fcf8f0"/></g></g></g><g data-name="Сгруппировать 33"><g data-name="Сгруппировать 32"><g data-name="Сгруппировать 31"><path data-name="Контур 13" d="M7.852 37.261a.3.3 0 01-.1-.017.3.3 0 01-.185-.387 12.491 12.491 0 012.622-4.785 2.531 2.531 0 011.687-.879.303.303 0 010 .607c-.2 0-1.97.148-3.741 5.258a.3.3 0 01-.283.203z" fill="#fcf8f0"/></g></g></g><g data-name="Сгруппировать 36"><g data-name="Сгруппировать 35"><g data-name="Сгруппировать 34"><path data-name="Контур 14" d="M4.261 34.776a.3.3 0 01-.1-.018.3.3 0 01-.181-.389c1.029-2.862 2.01-3.171 2.384-3.171a.303.303 0 010 .607c-.008 0-.833.032-1.818 2.771a.3.3 0 01-.285.2z" fill="#fcf8f0"/></g></g></g></g><g data-name="Сгруппировать 47"><g data-name="Сгруппировать 40"><g data-name="Сгруппировать 39"><g data-name="Сгруппировать 38"><path data-name="Контур 15" d="M18.117 31.805c-.65 0-4.041-.364-6.917-7.556a.3.3 0 01.167-.4.3.3 0 01.392.168c2.79 6.975 6 7.176 6.359 7.176a.303.303 0 010 .607z" fill="#fcf8f0"/></g></g></g><g data-name="Сгруппировать 43"><g data-name="Сгруппировать 42"><g data-name="Сгруппировать 41"><path data-name="Контур 16" d="M11.877 31.805a2.531 2.531 0 01-1.687-.879 12.49 12.49 0 01-2.622-4.785.3.3 0 01.185-.387.3.3 0 01.384.186c1.771 5.11 3.544 5.258 3.741 5.258a.303.303 0 010 .607z" fill="#fcf8f0"/></g></g></g><g data-name="Сгруппировать 46"><g data-name="Сгруппировать 45"><g data-name="Сгруппировать 44"><path data-name="Контур 17" d="M6.362 31.805c-.374 0-1.355-.309-2.384-3.171a.3.3 0 01.181-.389.3.3 0 01.386.182c.985 2.739 1.81 2.771 1.818 2.771a.303.303 0 010 .607z" fill="#fcf8f0"/></g></g></g></g><path data-name="Контур 18" d="M30 31.805H.621a.303.303 0 010-.607H30a.303.303 0 010 .607z" fill="#fcf8f0"/></g><g data-name="Сгруппировать 72"><g data-name="Сгруппировать 51"><g data-name="Сгруппировать 49"><path data-name="Контур 19" d="M15.307 57.446a.3.3 0 01-.095-.592c.108-.036 10.836-3.663 14.373-8.136a13.269 13.269 0 002.777-6.125 13.848 13.848 0 00-.241-5.46 17.041 17.041 0 00-2.369-5.454.305.305 0 01.066-.424.3.3 0 01.421.066 17.321 17.321 0 012.463 5.648 14.468 14.468 0 01.257 5.708 13.869 13.869 0 01-2.9 6.418c-1.537 1.944-4.474 3.938-8.729 5.928a62.919 62.919 0 01-5.926 2.406.3.3 0 01-.097.017z" fill="#fcf8f0"/></g><g data-name="Сгруппировать 50"><path data-name="Контур 20" d="M15.307 57.769a.623.623 0 01-.608-.5 64.526 64.526 0 01-.9-6.411 42.428 42.428 0 01-.164-5.6 16.493 16.493 0 01.914-5.131 14.133 14.133 0 014.159-5.874 14.526 14.526 0 015.146-2.69 17.354 17.354 0 016.209-.686.626.626 0 01-.132 1.245 16.42 16.42 0 00-5.768.654 13.275 13.275 0 00-4.689 2.462 12.9 12.9 0 00-3.769 5.346c-2.04 5.234.188 16.318.211 16.43a.626.626 0 01-.483.739.617.617 0 01-.126.016z" fill="#fcf8f0"/></g></g><g data-name="Сгруппировать 61"><g data-name="Сгруппировать 54"><g data-name="Сгруппировать 53"><g data-name="Сгруппировать 52"><path data-name="Контур 21" d="M27.069 51.653a.3.3 0 01-.237-.117c-4.742-6.107-3.36-9.248-3.034-9.815a.3.3 0 01.411-.111.3.3 0 01.11.415c-.179.312-1.611 3.216 2.987 9.138a.305.305 0 01-.052.426.3.3 0 01-.185.064z" fill="#fcf8f0"/></g></g></g><g data-name="Сгруппировать 57"><g data-name="Сгруппировать 56"><g data-name="Сгруппировать 55"><path data-name="Контур 22" d="M23.619 53.861a.3.3 0 01-.228-.105 12.486 12.486 0 01-2.8-4.681 2.577 2.577 0 01.088-1.912.3.3 0 01.411-.111.3.3 0 01.11.415c-.1.171-.858 1.793 2.648 5.894a.305.305 0 01-.032.428.3.3 0 01-.197.072z" fill="#fcf8f0"/></g></g></g><g data-name="Сгруппировать 60"><g data-name="Сгруппировать 59"><g data-name="Сгруппировать 58"><path data-name="Контур 23" d="M19.684 55.755a.3.3 0 01-.231-.108c-1.945-2.329-1.72-3.34-1.533-3.666a.3.3 0 01.411-.111.3.3 0 01.11.415c0 .007-.389.743 1.472 2.972a.305.305 0 01-.037.428.3.3 0 01-.192.07z" fill="#fcf8f0"/></g></g></g></g><g data-name="Сгруппировать 71"><g data-name="Сгруппировать 64"><g data-name="Сгруппировать 63"><g data-name="Сгруппировать 62"><path data-name="Контур 24" d="M17.624 44.533a23.152 23.152 0 01-3.257-.249.303.303 0 01.084-.6c7.388 1.052 9.167-1.65 9.346-1.962a.3.3 0 01.411-.111.3.3 0 01.11.415c-.272.475-1.73 2.507-6.694 2.507z" fill="#fcf8f0"/></g></g></g><g data-name="Сгруппировать 67"><g data-name="Сгруппировать 66"><g data-name="Сгруппировать 65"><path data-name="Контур 25" d="M17.498 48.761a17.942 17.942 0 01-3.321-.359.305.305 0 01.112-.6c5.277 1.009 6.29-.465 6.388-.636a.3.3 0 01.411-.111.3.3 0 01.11.415 2.54 2.54 0 01-1.6 1.033 7.679 7.679 0 01-2.1.258z" fill="#fcf8f0"/></g></g></g><g data-name="Сгруппировать 70"><g data-name="Сгруппировать 69"><g data-name="Сгруппировать 68"><path data-name="Контур 26" d="M16.423 52.973a10.891 10.891 0 01-1.9-.193.305.305 0 01.105-.6c2.847.51 3.286-.194 3.29-.2a.3.3 0 01.411-.111.3.3 0 01.11.415c-.132.241-.586.689-2.016.689z" fill="#fcf8f0"/></g></g></g></g><path data-name="Контур 27" d="M15.307 57.446a.3.3 0 01-.15-.041.3.3 0 01-.11-.415l14.689-25.641a.3.3 0 01.411-.111.3.3 0 01.11.415L15.568 57.294a.3.3 0 01-.261.152z" fill="#fcf8f0"/></g><g data-name="Сгруппировать 96"><g data-name="Сгруппировать 75"><g data-name="Сгруппировать 73"><path data-name="Контур 28" d="M44.69 57.769a.617.617 0 01-.126-.013.626.626 0 01-.483-.739c.023-.111 2.251-11.2.211-16.43a12.9 12.9 0 00-3.769-5.346 13.274 13.274 0 00-4.689-2.462 16.421 16.421 0 00-5.768-.654.626.626 0 01-.131-1.245 17.353 17.353 0 016.209.686 14.527 14.527 0 015.146 2.69 14.134 14.134 0 014.159 5.874 16.493 16.493 0 01.914 5.131 42.428 42.428 0 01-.164 5.6 64.532 64.532 0 01-.9 6.411.623.623 0 01-.609.497z" fill="#fcf8f0"/></g><g data-name="Сгруппировать 74"><path data-name="Контур 29" d="M44.689 57.769a.615.615 0 01-.2-.032 63.279 63.279 0 01-5.96-2.42 41.69 41.69 0 01-4.892-2.656 16.287 16.287 0 01-3.952-3.363 14.188 14.188 0 01-2.968-6.567 14.789 14.789 0 01.261-5.836 17.681 17.681 0 012.515-5.763.618.618 0 01.868-.137.629.629 0 01.136.875 16.739 16.739 0 00-2.321 5.361 13.516 13.516 0 00-.229 5.324 12.952 12.952 0 002.709 5.963c3.478 4.4 14.117 8 14.224 8.031a.627.627 0 01-.2 1.22z" fill="#fcf8f0"/></g></g><g data-name="Сгруппировать 85"><g data-name="Сгруппировать 78"><g data-name="Сгруппировать 77"><g data-name="Сгруппировать 76"><path data-name="Контур 30" d="M42.376 44.533c-4.965 0-6.422-2.032-6.7-2.508a.3.3 0 01.11-.415.3.3 0 01.411.111c.179.312 1.957 3.014 9.346 1.962a.303.303 0 01.084.6 23.156 23.156 0 01-3.251.25z" fill="#fcf8f0"/></g></g></g><g data-name="Сгруппировать 81"><g data-name="Сгруппировать 80"><g data-name="Сгруппировать 79"><path data-name="Контур 31" d="M42.502 48.761a7.679 7.679 0 01-2.1-.255 2.54 2.54 0 01-1.6-1.033.3.3 0 01.11-.415.3.3 0 01.411.111c.1.171 1.112 1.645 6.388.636a.305.305 0 01.112.6 17.941 17.941 0 01-3.321.356z" fill="#fcf8f0"/></g></g></g><g data-name="Сгруппировать 84"><g data-name="Сгруппировать 83"><g data-name="Сгруппировать 82"><path data-name="Контур 32" d="M43.577 52.973c-1.431 0-1.881-.447-2.019-.689a.3.3 0 01.11-.415.3.3 0 01.411.111c0 .007.444.711 3.29.2a.305.305 0 01.105.6 10.89 10.89 0 01-1.897.193z" fill="#fcf8f0"/></g></g></g></g><g data-name="Сгруппировать 95"><g data-name="Сгруппировать 88"><g data-name="Сгруппировать 87"><g data-name="Сгруппировать 86"><path data-name="Контур 33" d="M32.93 51.653a.3.3 0 01-.185-.064.305.305 0 01-.052-.426c4.6-5.922 3.166-8.826 2.987-9.138a.3.3 0 01.11-.415.3.3 0 01.411.111c.325.568 1.707 3.709-3.034 9.815a.3.3 0 01-.237.117z" fill="#fcf8f0"/></g></g></g><g data-name="Сгруппировать 91"><g data-name="Сгруппировать 90"><g data-name="Сгруппировать 89"><path data-name="Контур 34" d="M36.381 53.861a.3.3 0 01-.2-.074.305.305 0 01-.032-.428c3.506-4.1 2.746-5.722 2.648-5.894a.3.3 0 01.11-.415.3.3 0 01.411.111 2.577 2.577 0 01.088 1.912 12.486 12.486 0 01-2.8 4.681.3.3 0 01-.225.107z" fill="#fcf8f0"/></g></g></g><g data-name="Сгруппировать 94"><g data-name="Сгруппировать 93"><g data-name="Сгруппировать 92"><path data-name="Контур 35" d="M40.316 55.755a.3.3 0 01-.194-.071.305.305 0 01-.037-.428c1.861-2.229 1.476-2.965 1.472-2.972a.3.3 0 01.11-.415.3.3 0 01.411.111c.187.326.412 1.337-1.533 3.666a.3.3 0 01-.229.109z" fill="#fcf8f0"/></g></g></g></g><path data-name="Контур 36" d="M44.69 57.446a.3.3 0 01-.261-.152L29.74 31.653a.3.3 0 01.11-.415.3.3 0 01.411.111L44.95 56.99a.3.3 0 01-.11.415.3.3 0 01-.15.041z" fill="#fcf8f0"/></g><g data-name="Сгруппировать 120"><g data-name="Сгруппировать 99"><g data-name="Сгруппировать 97"><path data-name="Контур 37" d="M59.378 32.127a.616.616 0 01-.412-.158c-.084-.076-8.495-7.563-14.013-8.4a12.712 12.712 0 00-6.479.617 13.3 13.3 0 00-4.46 2.861 16.673 16.673 0 00-3.446 4.707.62.62 0 01-.82.318.628.628 0 01-.316-.825 17.622 17.622 0 013.694-5.076 14.55 14.55 0 014.884-3.146 13.926 13.926 0 017.127-.693c2.488.377 5.716 1.962 9.595 4.71a63.649 63.649 0 015.059 3.992.629.629 0 01.051.884.618.618 0 01-.464.209z" fill="#fcf8f0"/></g><g data-name="Сгруппировать 98"><path data-name="Контур 38" d="M42.824 40.849a13.433 13.433 0 01-4.813-.871 14.551 14.551 0 01-4.884-3.146 17.622 17.622 0 01-3.694-5.076.628.628 0 01.316-.826.619.619 0 01.819.318 16.672 16.672 0 003.446 4.707 13.3 13.3 0 004.46 2.861 12.711 12.711 0 006.479.617c5.522-.837 13.929-8.323 14.013-8.4a.618.618 0 01.877.052.629.629 0 01-.051.884 63.657 63.657 0 01-5.059 3.992c-3.878 2.748-7.106 4.333-9.595 4.71a15.433 15.433 0 01-2.314.178z" fill="#fcf8f0"/></g></g><g data-name="Сгруппировать 109"><g data-name="Сгруппировать 102"><g data-name="Сгруппировать 101"><g data-name="Сгруппировать 100"><path data-name="Контур 39" d="M41.883 31.805a.303.303 0 010-.607c.357 0 3.569-.2 6.359-7.176a.3.3 0 01.392-.168.3.3 0 01.167.4c-2.878 7.186-6.268 7.551-6.918 7.551z" fill="#fcf8f0"/></g></g></g><g data-name="Сгруппировать 105"><g data-name="Сгруппировать 104"><g data-name="Сгруппировать 103"><path data-name="Контур 40" d="M48.122 31.805a.303.303 0 010-.607c.2 0 1.969-.148 3.741-5.258a.3.3 0 01.384-.186.3.3 0 01.185.387 12.49 12.49 0 01-2.625 4.785 2.531 2.531 0 01-1.685.879z" fill="#fcf8f0"/></g></g></g><g data-name="Сгруппировать 108"><g data-name="Сгруппировать 107"><g data-name="Сгруппировать 106"><path data-name="Контур 41" d="M53.638 31.805a.303.303 0 010-.607c.008 0 .833-.032 1.818-2.771a.3.3 0 01.386-.182.3.3 0 01.181.389c-1.031 2.862-2.016 3.171-2.385 3.171z" fill="#fcf8f0"/></g></g></g></g><g data-name="Сгруппировать 119"><g data-name="Сгруппировать 112"><g data-name="Сгруппировать 111"><g data-name="Сгруппировать 110"><path data-name="Контур 42" d="M48.521 39.171a.3.3 0 01-.279-.19c-2.79-6.975-6-7.176-6.359-7.176a.303.303 0 010-.607c.65 0 4.041.364 6.917 7.556a.3.3 0 01-.167.4.3.3 0 01-.112.017z" fill="#fcf8f0"/></g></g></g><g data-name="Сгруппировать 115"><g data-name="Сгруппировать 114"><g data-name="Сгруппировать 113"><path data-name="Контур 43" d="M52.147 37.261a.3.3 0 01-.284-.2c-1.771-5.11-3.544-5.258-3.741-5.258a.303.303 0 010-.607 2.531 2.531 0 011.687.879 12.491 12.491 0 012.623 4.786.3.3 0 01-.185.387.3.3 0 01-.1.013z" fill="#fcf8f0"/></g></g></g><g data-name="Сгруппировать 118"><g data-name="Сгруппировать 117"><g data-name="Сгруппировать 116"><path data-name="Контур 44" d="M55.739 34.776a.3.3 0 01-.283-.2c-.985-2.739-1.81-2.771-1.818-2.771a.303.303 0 010-.607c.374 0 1.355.309 2.384 3.171a.3.3 0 01-.181.389.3.3 0 01-.102.018z" fill="#fcf8f0"/></g></g></g></g><path data-name="Контур 45" d="M59.379 31.805H30a.303.303 0 010-.607h29.379a.303.303 0 010 .607z" fill="#fcf8f0"/></g><g data-name="Сгруппировать 144"><g data-name="Сгруппировать 123"><g data-name="Сгруппировать 121"><path data-name="Контур 46" d="M30 32.127a.618.618 0 01-.5-.257 17.682 17.682 0 01-2.515-5.763 14.789 14.789 0 01-.261-5.836 14.188 14.188 0 012.968-6.567 16.29 16.29 0 013.952-3.363 41.691 41.691 0 014.892-2.656 63.275 63.275 0 015.96-2.42.62.62 0 01.785.4.627.627 0 01-.394.791c-.107.036-10.746 3.633-14.224 8.031a12.952 12.952 0 00-2.709 5.963 13.515 13.515 0 00.229 5.324 16.727 16.727 0 002.322 5.361.63.63 0 01-.137.874.615.615 0 01-.368.118z" fill="#fcf8f0"/></g><g data-name="Сгруппировать 122"><path data-name="Контур 47" d="M31.078 32.171a11.4 11.4 0 01-1.144-.048.626.626 0 01.132-1.245 16.427 16.427 0 005.768-.655 13.273 13.273 0 004.689-2.462 12.9 12.9 0 003.769-5.346c2.042-5.238-.188-16.318-.211-16.43a.622.622 0 111.217-.253 64.533 64.533 0 01.9 6.411 42.427 42.427 0 01.164 5.6 16.492 16.492 0 01-.914 5.131 14.134 14.134 0 01-4.159 5.874 14.526 14.526 0 01-5.146 2.69 18.1 18.1 0 01-5.065.733z" fill="#fcf8f0"/></g></g><g data-name="Сгруппировать 133"><g data-name="Сгруппировать 126"><g data-name="Сгруппировать 125"><g data-name="Сгруппировать 124"><path data-name="Контур 48" d="M35.941 21.433a.3.3 0 01-.15-.041.3.3 0 01-.11-.415c.179-.312 1.611-3.215-2.987-9.138a.305.305 0 01.052-.426.3.3 0 01.423.052c4.742 6.107 3.36 9.248 3.034 9.815a.3.3 0 01-.262.153z" fill="#fcf8f0"/></g></g></g><g data-name="Сгруппировать 129"><g data-name="Сгруппировать 128"><g data-name="Сгруппировать 127"><path data-name="Контур 49" d="M39.061 15.988a.3.3 0 01-.15-.041.3.3 0 01-.11-.415c.1-.171.858-1.793-2.648-5.893a.305.305 0 01.032-.428.3.3 0 01.425.032 12.487 12.487 0 012.8 4.681 2.577 2.577 0 01-.088 1.912.3.3 0 01-.261.152z" fill="#fcf8f0"/></g></g></g><g data-name="Сгруппировать 132"><g data-name="Сгруппировать 131"><g data-name="Сгруппировать 130"><path data-name="Контур 50" d="M41.818 11.174a.3.3 0 01-.15-.041.3.3 0 01-.11-.415c0-.007.389-.743-1.472-2.972a.305.305 0 01.037-.428.3.3 0 01.424.037c1.945 2.329 1.72 3.34 1.533 3.666a.3.3 0 01-.262.153z" fill="#fcf8f0"/></g></g></g></g><g data-name="Сгруппировать 143"><g data-name="Сгруппировать 136"><g data-name="Сгруппировать 135"><g data-name="Сгруппировать 134"><path data-name="Контур 51" d="M35.941 21.433a.3.3 0 01-.15-.041.3.3 0 01-.11-.415c.325-.568 2.333-3.344 9.952-2.259a.303.303 0 01-.084.6c-7.388-1.052-9.167 1.65-9.346 1.962a.3.3 0 01-.262.153z" fill="#fcf8f0"/></g></g></g><g data-name="Сгруппировать 139"><g data-name="Сгруппировать 138"><g data-name="Сгруппировать 137"><path data-name="Контур 52" d="M39.061 15.988a.3.3 0 01-.15-.041.3.3 0 01-.11-.415 2.54 2.54 0 011.6-1.033 12.277 12.277 0 015.423.1.305.305 0 01-.112.6c-5.277-1.009-6.29.465-6.388.636a.3.3 0 01-.263.153z" fill="#fcf8f0"/></g></g></g><g data-name="Сгруппировать 142"><g data-name="Сгруппировать 141"><g data-name="Сгруппировать 140"><path data-name="Контур 53" d="M41.818 11.174a.3.3 0 01-.15-.041.3.3 0 01-.11-.415c.187-.326.943-1.028 3.917-.5a.305.305 0 01-.105.6c-2.847-.51-3.286.194-3.29.2a.3.3 0 01-.262.156z" fill="#fcf8f0"/></g></g></g></g><path data-name="Контур 54" d="M30 31.805a.3.3 0 01-.15-.041.3.3 0 01-.11-.415L44.429 5.708a.3.3 0 01.411-.111.3.3 0 01.11.415L30.261 31.653a.3.3 0 01-.261.152z" fill="#fcf8f0"/></g><g data-name="Сгруппировать 149" transform="translate(-167.193 -158.139)"><g data-name="Сгруппировать 148"><g data-name="Сгруппировать 147"><g data-name="Сгруппировать 145"><path data-name="Контур 55" d="M197.193 168.473a.3.3 0 01-.275-.181.3.3 0 01.153-.4 5.343 5.343 0 001.508-1.124 4.071 4.071 0 001.1-3.535c-.268-1.8-2.69-4.561-2.714-4.588a.305.305 0 01.025-.429.3.3 0 01.425.025c.1.118 2.565 2.926 2.86 4.9A4.714 4.714 0 01199 167.2a5.847 5.847 0 01-1.686 1.245.3.3 0 01-.121.028z" fill="#fcf8f0"/></g><g data-name="Сгруппировать 146"><path data-name="Контур 56" d="M197.193 168.473a.3.3 0 01-.122-.026 5.848 5.848 0 01-1.686-1.245 4.714 4.714 0 01-1.277-4.058c.295-1.976 2.755-4.783 2.86-4.9a.3.3 0 01.425-.025.305.305 0 01.025.429c-.024.028-2.446 2.791-2.714 4.588a4.072 4.072 0 001.118 3.55 5.29 5.29 0 001.493 1.108.3.3 0 01.153.4.3.3 0 01-.275.179z" fill="#fcf8f0"/></g></g><path data-name="Контур 57" d="M197.193 168.473a.3.3 0 01-.3-.3v-9.726a.3.3 0 11.6 0v9.726a.3.3 0 01-.3.3z" fill="#fcf8f0"/></g><ellipse data-name="Эллипс 1" cx=".746" cy=".752" rx=".746" ry=".752" transform="rotate(-74.99 201.413 -41.645)" fill="#fcf8f0"/><ellipse data-name="Эллипс 2" cx=".746" cy=".752" rx=".746" ry=".752" transform="rotate(-74.99 199.9 -29.827)" fill="#fcf8f0"/></g><g data-name="Сгруппировать 154" transform="translate(-167.193 -158.139)"><g data-name="Сгруппировать 153"><g data-name="Сгруппировать 152"><g data-name="Сгруппировать 150"><path data-name="Контур 58" d="M178.743 179.209h-.032a.3.3 0 01-.267-.334 5.422 5.422 0 00-.212-1.878 4.039 4.039 0 00-2.486-2.73c-1.679-.665-5.264.067-5.3.075a.3.3 0 01-.122-.595c.154-.032 3.8-.775 5.642-.045a4.678 4.678 0 012.849 3.144 5.942 5.942 0 01.227 2.094.3.3 0 01-.299.269z" fill="#fcf8f0"/></g><g data-name="Сгруппировать 151"><path data-name="Контур 59" d="M175.813 180.146a4.613 4.613 0 01-2.932-1.062c-1.551-1.245-2.733-4.8-2.782-4.947a.3.3 0 01.191-.384.3.3 0 01.381.192c.012.035 1.175 3.53 2.586 4.663a4 4 0 003.609.8 5.268 5.268 0 001.7-.749.3.3 0 01.421.066.305.305 0 01-.066.424 5.83 5.83 0 01-1.913.849 5.048 5.048 0 01-1.195.148z" fill="#fcf8f0"/></g></g><path data-name="Контур 60" d="M178.742 179.209a.3.3 0 01-.15-.041l-8.358-4.863a.3.3 0 01-.11-.415.3.3 0 01.411-.111l8.357 4.863a.3.3 0 01.11.415.3.3 0 01-.26.152z" fill="#fcf8f0"/></g><ellipse data-name="Эллипс 3" cx=".746" cy=".752" rx=".746" ry=".752" transform="rotate(-80.8 192.616 -8.507)" fill="#fcf8f0"/><ellipse data-name="Эллипс 4" cx=".746" cy=".752" rx=".746" ry=".752" transform="rotate(-80.8 201.189 -1.21)" fill="#fcf8f0"/></g><g data-name="Сгруппировать 165"><g data-name="Сгруппировать 159" transform="translate(-167.193 -158.139)"><g data-name="Сгруппировать 158"><g data-name="Сгруппировать 157"><g data-name="Сгруппировать 155"><path data-name="Контур 61" d="M170.385 205.542a.3.3 0 01-.095-.016.3.3 0 01-.191-.384c.05-.151 1.232-3.7 2.782-4.947a4.627 4.627 0 014.126-.915 5.83 5.83 0 011.913.849.305.305 0 01.066.424.3.3 0 01-.42.067 5.322 5.322 0 00-1.72-.754 4 4 0 00-3.589.8 7.9 7.9 0 00-1.818 2.744 20.533 20.533 0 00-.767 1.919.3.3 0 01-.287.213z" fill="#fcf8f0"/></g><g data-name="Сгруппировать 156"><path data-name="Контур 62" d="M173.763 205.9a19.188 19.188 0 01-3.439-.365.3.3 0 01.122-.595c.036.007 3.621.739 5.3.075a4.04 4.04 0 002.491-2.75 5.367 5.367 0 00.206-1.857.3.3 0 11.6-.065 5.942 5.942 0 01-.227 2.094 4.678 4.678 0 01-2.849 3.144 6.261 6.261 0 01-2.204.319z" fill="#fcf8f0"/></g></g><path data-name="Контур 63" d="M170.385 205.542a.3.3 0 01-.261-.152.3.3 0 01.11-.415l8.358-4.863a.3.3 0 01.411.111.3.3 0 01-.11.415l-8.357 4.863a.3.3 0 01-.151.041z" fill="#fcf8f0"/></g><ellipse data-name="Эллипс 5" cx=".746" cy=".752" rx=".746" ry=".752" transform="translate(177.106 208.059)" fill="#fcf8f0"/><ellipse data-name="Эллипс 6" cx=".746" cy=".752" rx=".746" ry=".752" transform="translate(189.644 215.354)" fill="#fcf8f0"/></g><g data-name="Сгруппировать 164" transform="translate(-167.193 -158.139)"><g data-name="Сгруппировать 163"><g data-name="Сгруппировать 162"><g data-name="Сгруппировать 160"><path data-name="Контур 64" d="M197.193 221.14a.3.3 0 01-.225-.1c-.1-.118-2.565-2.926-2.86-4.9a4.714 4.714 0 011.277-4.058 5.849 5.849 0 011.686-1.245.3.3 0 01.4.155.3.3 0 01-.153.4 5.34 5.34 0 00-1.508 1.124 4.071 4.071 0 00-1.1 3.535c.268 1.8 2.69 4.561 2.714 4.589a.305.305 0 01-.025.429.3.3 0 01-.206.071z" fill="#fcf8f0"/></g><g data-name="Сгруппировать 161"><path data-name="Контур 65" d="M197.193 221.14a.3.3 0 01-.2-.077.305.305 0 01-.025-.429c.024-.028 2.446-2.791 2.714-4.589a4.071 4.071 0 00-1.1-3.535 5.34 5.34 0 00-1.508-1.124.3.3 0 01-.153-.4.3.3 0 01.4-.154 5.848 5.848 0 011.679 1.246 4.714 4.714 0 011.277 4.058c-.295 1.976-2.755 4.783-2.86 4.9a.3.3 0 01-.224.104z" fill="#fcf8f0"/></g></g><path data-name="Контур 66" d="M197.193 221.14a.3.3 0 01-.3-.3v-9.726a.3.3 0 11.6 0v9.726a.3.3 0 01-.3.3z" fill="#fcf8f0"/></g><ellipse data-name="Эллипс 7" cx=".746" cy=".752" rx=".746" ry=".752" transform="rotate(-74.99 242.712 -24.05)" fill="#fcf8f0"/><ellipse data-name="Эллипс 8" cx=".746" cy=".752" rx=".746" ry=".752" transform="rotate(-74.99 244.225 -35.87)" fill="#fcf8f0"/></g></g><g data-name="Сгруппировать 176"><g data-name="Сгруппировать 170" transform="translate(-167.193 -158.139)"><g data-name="Сгруппировать 169"><g data-name="Сгруппировать 168"><g data-name="Сгруппировать 166"><path data-name="Контур 67" d="M220.622 205.9a6.261 6.261 0 01-2.2-.32 4.678 4.678 0 01-2.849-3.144 5.942 5.942 0 01-.227-2.094.3.3 0 11.6.064 5.423 5.423 0 00.212 1.878 4.039 4.039 0 002.486 2.73c1.679.665 5.264-.067 5.3-.075a.3.3 0 01.122.595 19.194 19.194 0 01-3.444.366z" fill="#fcf8f0"/></g><g data-name="Сгруппировать 167"><path data-name="Контур 68" d="M224 205.542a.3.3 0 01-.286-.208c-.012-.035-1.175-3.53-2.586-4.663a4 4 0 00-3.589-.8 5.322 5.322 0 00-1.72.754.3.3 0 01-.421-.067.3.3 0 01.066-.424 5.831 5.831 0 011.913-.849 4.627 4.627 0 014.126.915c1.551 1.245 2.733 4.8 2.782 4.947a.3.3 0 01-.191.384.3.3 0 01-.094.011z" fill="#fcf8f0"/></g></g><path data-name="Контур 69" d="M224 205.542a.3.3 0 01-.15-.041l-8.358-4.863a.3.3 0 01-.11-.415.3.3 0 01.411-.111l8.357 4.863a.3.3 0 01.11.415.3.3 0 01-.26.152z" fill="#fcf8f0"/></g><ellipse data-name="Эллипс 9" cx=".746" cy=".752" rx=".746" ry=".752" transform="rotate(-80.783 227.34 -31.968)" fill="#fcf8f0"/><ellipse data-name="Эллипс 10" cx=".746" cy=".752" rx=".746" ry=".752" transform="rotate(-80.783 218.765 -39.263)" fill="#fcf8f0"/></g><g data-name="Сгруппировать 175" transform="translate(-167.193 -158.139)"><g data-name="Сгруппировать 174"><g data-name="Сгруппировать 173"><g data-name="Сгруппировать 171"><path data-name="Контур 70" d="M218.572 180.146a5.048 5.048 0 01-1.194-.147 5.831 5.831 0 01-1.913-.849.305.305 0 01-.066-.424.3.3 0 01.421-.067 5.322 5.322 0 001.719.754 4 4 0 003.589-.8 7.9 7.9 0 001.818-2.744 20.521 20.521 0 00.767-1.919.3.3 0 01.381-.193.3.3 0 01.191.384c-.05.151-1.232 3.7-2.782 4.947a4.613 4.613 0 01-2.931 1.058z" fill="#fcf8f0"/></g><g data-name="Сгруппировать 172"><path data-name="Контур 71" d="M215.643 179.209a.3.3 0 01-.3-.271 5.942 5.942 0 01.227-2.094 4.678 4.678 0 012.849-3.144c1.845-.731 5.488.013 5.642.045a.3.3 0 01-.122.595c-.036-.007-3.621-.739-5.3-.075a4.04 4.04 0 00-2.491 2.75 5.367 5.367 0 00-.206 1.857.3.3 0 01-.267.334z" fill="#fcf8f0"/></g></g><path data-name="Контур 72" d="M215.643 179.209a.3.3 0 01-.261-.152.3.3 0 01.11-.415l8.358-4.863a.3.3 0 01.411.111.3.3 0 01-.11.415l-8.357 4.863a.3.3 0 01-.151.041z" fill="#fcf8f0"/></g><ellipse data-name="Эллипс 11" cx=".746" cy=".752" rx=".746" ry=".752" transform="translate(215.788 169.718)" fill="#fcf8f0"/><path data-name="Контур 73" d="M204.642 163.55a.743.743 0 01-1.019.275.755.755 0 01-.273-1.027.743.743 0 011.019-.275.755.755 0 01.273 1.027z" fill="#fcf8f0"/></g></g></g></g><path data-name="Color Overlay" d="M30.014 63.001h-.119l-.027-.012h-.008l-.014-.009h-.006l-.006-.005a.334.334 0 01-.044-.043c-.167-.19-2.564-2.948-2.854-4.9a4.712 4.712 0 011.277-4.058 5.9 5.9 0 011.67-1.238.314.314 0 01.13-.033h.018a.408.408 0 01.057.007h.049a5.867 5.867 0 011.686 1.246 4.714 4.714 0 011.261 4.045c-.29 1.947-2.685 4.7-2.853 4.894l-.009.011a.308.308 0 01-.055.047h-.027l-.016.008h-.012l-.018.006h-.071zm.287-1.143a10.714 10.714 0 002.188-3.95 4.072 4.072 0 00-1.1-3.535 5.537 5.537 0 00-1.084-.887zm-1.687-7.485a4.071 4.071 0 00-1.1 3.535 10.719 10.719 0 002.187 3.95v-8.373a5.537 5.537 0 00-1.086.887zm8 4.321a.749.749 0 11.2.026.777.777 0 01-.198-.027zm-14.164-.726a.746.746 0 11.745.751.748.748 0 01-.743-.752zm22.251-.2h-.045a.6.6 0 01-.136-.023.3.3 0 01-.038-.012 63.229 63.229 0 01-5.949-2.417 41.658 41.658 0 01-4.892-2.655 16.69 16.69 0 01-3.853-3.239 21.265 21.265 0 01-5.95 4.347.277.277 0 01-.023.022.3.3 0 01-.148.069q-1.094.581-2.337 1.163c-.495.231-.979.449-1.444.652l-.009.008a.3.3 0 01-.171.07 70.29 70.29 0 01-3.784 1.5.625.625 0 01-.487.506.607.607 0 01-.126.013.624.624 0 01-.608-.5c-.005-.029-.589-2.9-.9-6.411a42.424 42.424 0 01-.164-5.6 17.606 17.606 0 01.75-4.675c-2.419-.495-5.484-2.048-9.12-4.625a63.583 63.583 0 01-5.046-3.98.608.608 0 01-.065-.063.63.63 0 01-.081-.716l.007-.013s0-.007.006-.012l.005-.009v-.008l.005-.007.008-.011.034-.041a.682.682 0 01.068-.067 63.782 63.782 0 015.043-3.976c3.636-2.577 6.7-4.131 9.119-4.626a17.645 17.645 0 01-.749-4.674 42.424 42.424 0 01.164-5.6c.3-3.4.86-6.215.9-6.4a.181.181 0 010-.023.066.066 0 000-.013v-.01a.594.594 0 01.042-.112v-.019a.624.624 0 01.3-.268.61.61 0 01.2-.049h.073a.618.618 0 01.185.023l.033.011a63.308 63.308 0 015.952 2.417 41.843 41.843 0 014.892 2.656A17.406 17.406 0 0130 13.332a17.406 17.406 0 013.642-2.992 41.787 41.787 0 014.892-2.656 63.32 63.32 0 015.949-2.416l.036-.012a.612.612 0 01.184-.023h.012a.619.619 0 01.363.137l.007.006.005.005.005.005.006.006.008.008.008.008a.66.66 0 01.05.06l.005.007v.011l.005.008a.634.634 0 01.073.167v.013a.271.271 0 01.008.037c.038.187.6 3 .9 6.4a42.424 42.424 0 01.164 5.6 17.645 17.645 0 01-.749 4.674c2.419.495 5.484 2.049 9.12 4.626a63.913 63.913 0 015.042 3.976.682.682 0 01.068.067l.033.04.005.007.005.007v.005a.055.055 0 01.006.009l.008.013a.612.612 0 01.075.184v.026a.061.061 0 010 .013v.156a.069.069 0 010 .013.621.621 0 01-.12.294v.006l-.023.028a.628.628 0 01-.066.064 63.882 63.882 0 01-5.045 3.979c-3.636 2.577-6.7 4.13-9.121 4.625a17.606 17.606 0 01.75 4.675 42.424 42.424 0 01-.164 5.6 63.003 63.003 0 01-.9 6.4v.007a.641.641 0 01-.018.068.622.622 0 01-.4.4h-.039l-.029.006h-.06zm-28.723-1.184a63.871 63.871 0 003.2-1.27 7.229 7.229 0 01-1.258-2.129zm25.042-1.533c1.1.468 2.064.841 2.753 1.1l-1.7-2.963a6.678 6.678 0 01-1.053 1.864zm3.275.794c.124-.73.285-1.756.434-2.953a9.2 9.2 0 01-1.151.079 4.772 4.772 0 01-.98-.089zm-28.589 0l1.7-2.964a4.718 4.718 0 01-.981.09 9.2 9.2 0 01-1.151-.079c.147 1.198.308 2.224.432 2.953zm2.739-3.567c-.011.02-.353.719 1.317 2.782a54.055 54.055 0 003.374-1.613 11.9 11.9 0 01-2.543-4.374 4.922 4.922 0 01-.082-.4zm20.965-3.2a11.442 11.442 0 01-2.336 4.123c1.156.6 2.315 1.144 3.373 1.606 1.448-1.879 1.115-2.515 1.111-2.522v-.005l-2.063-3.6a5.924 5.924 0 01-.085.398zM21.205 47.46l-.005.01c-.1.168-.833 1.74 2.477 5.692a31.2 31.2 0 003-1.832c-2.688-3.527-3.316-6.044-3.314-7.63zm12.313 3.614a30.985 30.985 0 003.013 1.836c3.072-3.768 2.364-5.276 2.269-5.44l-.005-.01-2.154-3.759c.002 1.546-.596 3.98-3.123 7.374zm-18.32 1.2c2.338.323 2.719-.285 2.723-.292a.039.039 0 000-.006l2.063-3.6q-.177.069-.386.13a7.669 7.669 0 01-2.1.255 16.6 16.6 0 01-2.607-.232c.059 1.304.174 2.587.309 3.743zm26.886-.286c.043.059.5.593 2.719.286.132-1.156.248-2.437.307-3.747a16.59 16.59 0 01-2.607.232 7.673 7.673 0 01-2.1-.255 4.946 4.946 0 01-.385-.129zm-17.771-9.95c-.2.359-1.526 3.208 2.851 8.941a13.514 13.514 0 002.247-2.041 14.088 14.088 0 01-2.69-6.2 14.556 14.556 0 01.1-5.069zm8.393-5.064a14.46 14.46 0 01.257 5.708 13.663 13.663 0 01-2.387 5.729l.085.11a12.6 12.6 0 002.367 2.205c4.149-5.568 2.854-8.337 2.658-8.688l-3.04-5.307c.021.077.041.158.06.24zM14.867 47.901c4.774.8 5.716-.574 5.81-.74l.006-.011 2.154-3.759a10.217 10.217 0 01-5.214 1.137 22.311 22.311 0 01-2.686-.174 31.682 31.682 0 00-.07 3.547zm24.461-.729c.125.205 1.12 1.51 5.8.729a31.678 31.678 0 00-.071-3.547 22.311 22.311 0 01-2.686.174 10.215 10.215 0 01-5.208-1.127zM29.41 33.788a17.059 17.059 0 00-1.229 3.442 13.515 13.515 0 00-.229 5.324 12.745 12.745 0 002.248 5.342 13.031 13.031 0 002.17-5.3 13.848 13.848 0 00-.24-5.459 16.848 16.848 0 00-.671-2.15A18.5 18.5 0 0130 32.841c-.161.278-.357.598-.59.947zm6.79 7.921l.006.011c.174.3 1.868 2.881 8.8 2.034a13.151 13.151 0 00-.643-2.985 15.055 15.055 0 01-1.536.079 13.439 13.439 0 01-4.813-.87 14.327 14.327 0 01-4.314-2.619zM15 43.754c6.843.835 8.582-1.664 8.794-2.021l2.506-4.375a14.345 14.345 0 01-4.307 2.619 13.439 13.439 0 01-4.813.87 15.055 15.055 0 01-1.536-.079A13.15 13.15 0 0015 43.754zm19.017-7.8a13.3 13.3 0 004.46 2.861 12.418 12.418 0 005.372.742 12.6 12.6 0 00-3.324-4.317 13.277 13.277 0 00-4.689-2.462 16.745 16.745 0 00-3.569-.648c-.45.031-.851.041-1.186.041h-.024a17.222 17.222 0 002.957 3.783zm-9.848-3.176a13.285 13.285 0 00-4.689 2.462 12.6 12.6 0 00-3.324 4.317 12.418 12.418 0 005.372-.742 13.3 13.3 0 004.46-2.861 16.865 16.865 0 002.343-2.794c.184-.378.362-.709.52-.988-.319 0-.694-.013-1.111-.041a16.767 16.767 0 00-3.574.647zm17.123 1.477a13.93 13.93 0 013.855 5.146 12.933 12.933 0 002.887-.932c-2.739-6.473-5.8-6.664-6.149-6.664h-5a14.3 14.3 0 014.405 2.449zm-29.32 4.214a12.956 12.956 0 002.886.932 13.942 13.942 0 013.856-5.146 14.3 14.3 0 014.4-2.45h-5c-.345-.004-3.407.19-6.145 6.663zm36.61-.25a31.008 31.008 0 003.084-1.712c-1.7-4.565-3.352-4.7-3.541-4.7H43.8c1.333.769 3.127 2.508 4.78 6.411zM8.337 36.506a30.9 30.9 0 003.083 1.711c1.653-3.9 3.446-5.641 4.776-6.412h-4.318c-.189-.004-1.839.136-3.541 4.701zm41.473-4.43a11.428 11.428 0 012.373 4.1c1.1-.707 2.14-1.448 3.067-2.141-.892-2.2-1.606-2.231-1.613-2.231h-4.131c.094.081.2.171.304.272zM4.751 34.035a54.11 54.11 0 003.066 2.141 11.431 11.431 0 012.373-4.1c.1-.1.205-.192.3-.272H6.362c-.007-.003-.72.028-1.611 2.231zm51-.374a66.322 66.322 0 002.321-1.856h-3.4a6.657 6.657 0 011.075 1.855zm-51.494 0a6.7 6.7 0 011.07-1.86H1.934c.566.477 1.366 1.13 2.319 1.859zm50.42-2.462h3.395a67.258 67.258 0 00-2.32-1.855 6.709 6.709 0 01-1.079 1.857zm-4.863-.272c-.1.1-.206.192-.3.272h4.132c.007 0 .721-.027 1.612-2.23a54.11 54.11 0 00-3.066-2.141 11.439 11.439 0 01-2.382 4.097zm-6.014.274h4.319c.19 0 1.839-.137 3.541-4.7a31.017 31.017 0 00-3.084-1.711c-1.65 3.897-3.443 5.636-4.776 6.411zm-2.514-2.45a14.3 14.3 0 01-4.4 2.45h5c.348 0 3.41-.192 6.149-6.664a12.916 12.916 0 00-2.887-.932 13.938 13.938 0 01-3.858 5.142zm-29.32-4.215c2.741 6.465 5.803 6.665 6.151 6.665h5a14.3 14.3 0 01-4.4-2.45 13.95 13.95 0 01-3.861-5.15 12.936 12.936 0 00-2.887.932zm-3.632 1.962c1.7 4.566 3.352 4.7 3.541 4.7H16.2c-1.33-.771-3.124-2.511-4.776-6.413a30.9 30.9 0 00-3.087 1.71zm-3.586 2.471c.892 2.2 1.6 2.231 1.612 2.231h4.132c-.1-.08-.2-.17-.3-.272a11.436 11.436 0 01-2.373-4.1 51.686 51.686 0 00-3.068 2.138zm-2.815 2.232h3.395a6.7 6.7 0 01-1.075-1.856 61.162 61.162 0 00-2.32 1.856zm14.221-7.753a12.61 12.61 0 003.346 4.33 13.28 13.28 0 004.711 2.458 16.737 16.737 0 003.521.636c.42-.029.8-.04 1.12-.041a18.28 18.28 0 01-.52-.988 16.909 16.909 0 00-2.343-2.795 13.3 13.3 0 00-4.46-2.862 12.218 12.218 0 00-4.351-.779q-.509 0-1.024.038zm22.321.742a13.3 13.3 0 00-4.46 2.862 16.9 16.9 0 00-2.342 2.793c-.185.378-.362.71-.52.99.319 0 .691.013 1.107.041a16.732 16.732 0 003.575-.648 13.275 13.275 0 004.689-2.461 12.613 12.613 0 003.324-4.317q-.516-.038-1.021-.038a12.218 12.218 0 00-4.353.774zm-10.523-3.742a13.516 13.516 0 00.229 5.323 17.1 17.1 0 001.229 3.443c.232.349.428.67.59.948.161-.278.357-.6.59-.948a17.055 17.055 0 001.23-3.443 13.532 13.532 0 00.229-5.323A12.68 12.68 0 0030 15.388a12.681 12.681 0 00-2.048 5.06zm-5.962 2.577a14.324 14.324 0 014.31 2.617l-2.515-4.39c-.252-.41-2.038-2.829-8.784-2.005a13.15 13.15 0 00.643 2.985 15.3 15.3 0 011.535-.079 13.441 13.441 0 014.81.871zm14.222-1.757l-2.507 4.373a14.3 14.3 0 014.306-2.617 13.754 13.754 0 016.35-.792A13.1 13.1 0 0045 19.247a21.662 21.662 0 00-2.611-.169c-4.689 0-5.995 1.882-6.178 2.189zm-11.9-.3l2.506 4.374a14.561 14.561 0 01-.1-5.07 14.013 14.013 0 012.495-5.938 13.05 13.05 0 00-2.245-2.053c-4.145 5.566-2.85 8.334-2.655 8.686zm6.471-6.634a14 14 0 012.495 5.938 14.53 14.53 0 01-.1 5.068l2.5-4.371c.194-.349 1.493-3.118-2.658-8.688a13.049 13.049 0 00-2.236 2.052zm8.551 1.482l-2.171 3.785c1.327-.776 3.719-1.471 7.9-.962a31.675 31.675 0 00.072-3.547 16.2 16.2 0 00-2.648-.247c-2.4.004-3.039.791-3.152.97zm-16.5 3.79l-2.164-3.778c-.119-.2-1.1-1.516-5.806-.731a31.682 31.682 0 00.071 3.547 22.347 22.347 0 012.687-.174 10.215 10.215 0 015.216 1.131zM21.2 15.532l.005.011 2.155 3.758c0-1.547.595-3.982 3.121-7.376a31.02 31.02 0 00-3.011-1.834c-3.07 3.768-2.365 5.276-2.27 5.441zm12.319-3.605c2.526 3.394 3.124 5.828 3.122 7.375l2.154-3.759.005-.011c.1-.165.8-1.673-2.269-5.441a31.218 31.218 0 00-3.012 1.835zM19.6 14.501c.14.041.268.084.385.13l-2.062-3.6v-.005c0-.006-.382-.616-2.723-.292a55.833 55.833 0 00-.307 3.747 16.6 16.6 0 012.606-.233 7.711 7.711 0 012.101.253zm22.483-3.482l-2.069 3.611c.118-.045.246-.089.385-.129a11.252 11.252 0 014.71-.022 54.567 54.567 0 00-.306-3.747 9.085 9.085 0 00-1.229-.095c-1.174-.001-1.457.333-1.491.379zm-5.008-1.218a11.44 11.44 0 012.335 4.122c.035.142.062.275.082.4l2.063-3.6v-.005c0-.006.338-.643-1.11-2.523a57.255 57.255 0 00-3.37 1.606zm-18.633.917l2.063 3.6c.02-.126.047-.259.082-.4a11.438 11.438 0 012.338-4.117 55.781 55.781 0 00-3.372-1.606c-1.453 1.881-1.115 2.517-1.111 2.524zm24.155-.6a6.574 6.574 0 012.131-.011c-.148-1.2-.31-2.223-.434-2.952zm-25.195 0l-1.7-2.963a67.77 67.77 0 00-.434 2.952 9.177 9.177 0 011.15-.079 4.765 4.765 0 01.982.091zm.522-.3a6.678 6.678 0 011.056-1.866 70.133 70.133 0 00-2.753-1.1zm23.095-1.866a6.676 6.676 0 011.056 1.865l1.7-2.962A61.67 61.67 0 0041.02 7.95zm8.135 43.449a.749.749 0 11.2.026.777.777 0 01-.2-.026zm-39.241-.73a.746.746 0 11.746.751.749.749 0 01-.746-.751zm41.314-3.23a4.678 4.678 0 01-2.848-3.144 5.969 5.969 0 01-.228-2.093v-.019a.032.032 0 010-.009v-.007a.262.262 0 01.014-.045v-.021a.285.285 0 01.049-.064.307.307 0 01.047-.038 5.878 5.878 0 011.9-.84 4.63 4.63 0 014.127.914c1.519 1.22 2.686 4.656 2.777 4.934l.008.024a.31.31 0 01.006.135.253.253 0 01-.007.028v.008-.003.01a.106.106 0 010 .01v.005a.032.032 0 010 .008v.008l-.007.012a.223.223 0 01-.025.032v.005a.286.286 0 01-.076.06h-.009a.239.239 0 01-.038.016h-.038a19.2 19.2 0 01-3.435.365 6.251 6.251 0 01-2.217-.291zm-2.265-3.3a4.039 4.039 0 002.486 2.731 10.506 10.506 0 004.488.066l-7.195-4.186a5.566 5.566 0 00.22 1.393zm1.386-2.418a5.441 5.441 0 00-1.305.5l7.195 4.187a10.705 10.705 0 00-2.3-3.884 3.987 3.987 0 00-2.544-.932 4.47 4.47 0 00-1.047.133zM3.142 47.401a.276.276 0 01-.045-.012.351.351 0 01-.042-.018h-.006a.29.29 0 01-.1-.085l-.016-.024v-.007a.037.037 0 010-.009.106.106 0 010-.01v-.025a.057.057 0 000-.008v-.009a.028.028 0 010-.007v-.018a.283.283 0 01.006-.11v-.058c.07-.213 1.245-3.708 2.781-4.942a4.628 4.628 0 014.126-.914 5.851 5.851 0 011.906.844h.006a.3.3 0 01.119.211 5.944 5.944 0 01-.228 2.093A4.676 4.676 0 018.8 47.437a6.251 6.251 0 01-2.2.32 19.271 19.271 0 01-3.458-.356zm.923-.457a10.506 10.506 0 004.488-.066 4.038 4.038 0 002.491-2.75 5.607 5.607 0 00.216-1.37zm2-4.41a7.885 7.885 0 00-1.819 2.744 20.77 20.77 0 00-.482 1.141l7.2-4.188a5.441 5.441 0 00-1.305-.5 4.481 4.481 0 00-1.045-.128 3.984 3.984 0 00-2.55.929zm49.965-2.993a.751.751 0 11.122.01.811.811 0 01-.122-.013zm-52.287 0a.75.75 0 11.122.01.811.811 0 01-.122-.013zM56.03 24.948a.751.751 0 11.122.01.811.811 0 01-.122-.01zm-52.287 0a.75.75 0 11.122.01.811.811 0 01-.122-.01zm46.443-3.088a5.847 5.847 0 01-1.907-.845l-.014-.01-.008-.006a.2.2 0 01-.031-.032.366.366 0 01-.03-.043.291.291 0 01-.032-.08.2.2 0 01-.005-.033 5.968 5.968 0 01.228-2.093 4.678 4.678 0 012.848-3.144c1.809-.716 5.341-.016 5.629.042a.294.294 0 01.049.012h.005l.015.006h.018a.3.3 0 01.088.077l.012.016.007.012.006.012a.305.305 0 01.015.25c-.092.277-1.258 3.713-2.777 4.934a4.614 4.614 0 01-2.932 1.062 5.064 5.064 0 01-1.185-.137zm-1.144-1.088a5.45 5.45 0 001.306.5 4 4 0 003.589-.8 7.907 7.907 0 001.818-2.744c.194-.42.357-.818.483-1.141zm2.406-4.646a4.037 4.037 0 00-2.491 2.75 5.569 5.569 0 00-.216 1.37l7.2-4.186a17.56 17.56 0 00-2.526-.213 5.618 5.618 0 00-1.968.279zM5.689 20.944c-1.551-1.245-2.733-4.8-2.783-4.946s0 0 0-.006a.028.028 0 000-.007.274.274 0 01-.008-.066.022.022 0 010-.011v-.01a.311.311 0 01.034-.128l.006-.012.009-.014.011-.015a.314.314 0 01.088-.077l.01-.005.01-.005h.006l.012-.005h.005a.317.317 0 01.049-.012c.289-.059 3.82-.759 5.629-.042a4.676 4.676 0 012.855 3.118 5.943 5.943 0 01.228 2.1.2.2 0 01-.005.033v.005a.324.324 0 01-.031.078.367.367 0 01-.03.043.251.251 0 01-.041.041l-.016.012a5.851 5.851 0 01-1.906.844 5.059 5.059 0 01-1.194.147 4.61 4.61 0 01-2.938-1.06zm.375-.474a4 4 0 003.609.8 5.471 5.471 0 001.285-.5l-7.2-4.187a10.7 10.7 0 002.306 3.887zm-2-4.41l7.2 4.186a5.585 5.585 0 00-.221-1.39 4.038 4.038 0 00-2.486-2.73 5.6 5.6 0 00-1.962-.279 17.549 17.549 0 00-2.53.213zm6.407-3a.749.749 0 11.2.026.779.779 0 01-.199-.029zm38.123-.726a.746.746 0 11.746.751.749.749 0 01-.745-.755zm-18.594-2h-.016a.3.3 0 01-.13-.037 5.9 5.9 0 01-1.661-1.234 4.712 4.712 0 01-1.277-4.062c.287-1.926 2.632-4.642 2.847-4.887A.3.3 0 0130 .001a.3.3 0 01.235.117c.216.246 2.56 2.961 2.847 4.887a4.714 4.714 0 01-1.276 4.058 5.9 5.9 0 01-1.666 1.238.294.294 0 01-.123.034H30zm.3-.817a5.513 5.513 0 001.084-.888 4.07 4.07 0 001.1-3.534 10.714 10.714 0 00-2.188-3.95zm-2.79-4.423a4.071 4.071 0 001.118 3.55 5.453 5.453 0 001.069.873V1.144a10.719 10.719 0 00-2.185 3.95zm-4.5.667a.749.749 0 11.2.026.779.779 0 01-.2-.026zm13.421-.076a.754.754 0 01-.274-1.027.743.743 0 011.019-.275.755.755 0 01.274 1.027.744.744 0 01-.646.375.736.736 0 01-.373-.099z" fill="#7492ec"/></g></svg>